<svg width="34" height="34" viewBox="0 0 34 34" fill="none" xmlns="http://www.w3.org/2000/svg">
<path fill-rule="evenodd" clip-rule="evenodd" d="M28.6956 0.814792C29.6458 1.18186 30.324 1.62043 31.0363 2.32857C31.7486 3.03671 32.1899 3.71088 32.5592 4.65544C32.8379 5.36853 33.1696 6.44012 33.2601 8.41315C33.3581 10.547 33.3788 11.1871 33.3788 16.5905C33.3788 21.9941 33.3581 22.6341 33.2601 24.768C33.1696 26.741 32.8379 27.8126 32.5592 28.5257C32.1899 29.4703 31.7486 30.1444 31.0364 30.8525C30.324 31.5607 29.6458 31.9993 28.6956 32.3664C27.9782 32.6435 26.9003 32.9732 24.9155 33.0632C22.7692 33.1605 22.1254 33.1812 16.6894 33.1812C11.2533 33.1812 10.6096 33.1605 8.46326 33.0632C6.47841 32.9732 5.40051 32.6435 4.68317 32.3664C3.73291 31.9993 3.0548 31.5607 2.34244 30.8526C1.63008 30.1444 1.1889 29.4703 0.819571 28.5257C0.540809 27.8126 0.209221 26.741 0.118652 24.768C0.0207289 22.6341 0 21.9941 0 16.5905C0 11.1871 0.0207289 10.547 0.118652 8.41315C0.209221 6.44012 0.540809 5.36853 0.819571 4.65544C1.1889 3.71088 1.63008 3.03671 2.34244 2.32857C3.0548 1.62043 3.73291 1.18186 4.68317 0.814792C5.40051 0.537606 6.47841 0.207982 8.46318 0.11795C10.6098 0.0206062 11.2537 0 16.6894 0C22.125 0 22.7689 0.0206062 24.9155 0.11795C26.9003 0.207982 27.9782 0.537606 28.6956 0.814792ZM7.575 16.5285C7.575 21.5084 11.645 25.5454 16.6655 25.5454C21.6861 25.5454 25.7562 21.5084 25.7562 16.5285C25.7562 11.5487 21.6861 7.51172 16.6655 7.51172C11.645 7.51172 7.575 11.5487 7.575 16.5285ZM26.1143 9.26172C24.941 9.26172 23.99 8.31839 23.99 7.15482C23.99 5.99118 24.941 5.04785 26.1143 5.04785C27.2875 5.04785 28.2386 5.99118 28.2386 7.15482C28.2386 8.31839 27.2875 9.26172 26.1143 9.26172ZM10.764 16.5288C10.764 13.2963 13.406 10.6758 16.665 10.6758C19.924 10.6758 22.5659 13.2963 22.5659 16.5288C22.5659 19.7614 19.924 22.3818 16.665 22.3818C13.406 22.3818 10.764 19.7614 10.764 16.5288Z" fill="white"/>
</svg>
