<svg width="46" height="25" viewBox="0 0 46 25" fill="none" xmlns="http://www.w3.org/2000/svg">
<path id="vk_red copy" fill-rule="evenodd" clip-rule="evenodd" d="M22.4748 23.9183H25.1352C25.1352 23.9183 25.9382 23.8352 26.3484 23.4184C26.7271 23.0343 26.7145 22.3149 26.7145 22.3149C26.7145 22.3149 26.6627 18.9464 28.319 18.4495C29.9517 17.9601 32.0496 21.7053 34.2716 23.1455C35.953 24.2357 37.2306 23.9969 37.2306 23.9969L43.1738 23.9183C43.1738 23.9183 46.2821 23.7373 44.8081 21.4309C44.6871 21.2425 43.9485 19.7237 40.3892 16.6044C36.6617 13.3398 37.1614 13.8678 41.651 8.21961C44.3838 4.78146 45.4775 2.68118 45.1349 1.78234C44.8096 0.925021 42.7998 1.15196 42.7998 1.15196L36.107 1.19052C36.107 1.19052 35.6104 1.12674 35.2427 1.3344C34.8844 1.5376 34.6534 2.01224 34.6534 2.01224C34.6534 2.01224 33.5927 4.67318 32.1816 6.93661C29.2021 11.7127 28.0094 11.9648 27.5222 11.6682C26.3892 10.977 26.6721 8.89301 26.6721 7.41125C26.6721 2.78204 27.417 0.852342 25.2248 0.352489C24.4972 0.187849 23.9614 0.078089 22.1008 0.0602901C19.7138 0.0365582 17.6929 0.0662231 16.5489 0.595741C15.7867 0.94727 15.199 1.73191 15.5573 1.7764C15.9989 1.83277 17.0015 2.03152 17.5326 2.71381C18.2178 3.59486 18.1942 5.57202 18.1942 5.57202C18.1942 5.57202 18.5886 11.02 17.2733 11.6978C16.3713 12.1606 15.1346 11.2143 12.4773 6.88025C11.1164 4.66131 10.0887 2.20803 10.0887 2.20803C10.0887 2.20803 9.8907 1.7497 9.53712 1.50349C9.10812 1.20684 8.5094 1.11191 8.5094 1.11191L2.14979 1.15196C2.14979 1.15196 1.19592 1.17717 0.845494 1.56875C0.532777 1.91731 0.820351 2.63817 0.820351 2.63817C0.820351 2.63817 5.79867 13.632 11.4354 19.1719C16.6055 24.252 22.4748 23.9183 22.4748 23.9183Z" fill="white"/>
</svg>
