<svg width="38" height="26" viewBox="0 0 38 26" fill="none" xmlns="http://www.w3.org/2000/svg">
<path fill-rule="evenodd" clip-rule="evenodd" d="M35.5243 1.97991C36.6358 3.09331 36.9986 5.62167 36.9986 5.62167C36.9986 5.62167 37.3694 8.59149 37.3694 11.5602V14.3442C37.3694 17.314 36.9986 20.2827 36.9986 20.2827C36.9986 20.2827 36.6358 22.8111 35.5243 23.9245C34.2536 25.2416 32.8446 25.3777 32.0482 25.4546C31.9606 25.4631 31.8804 25.4708 31.8086 25.4793C26.6187 25.8508 18.8257 25.8623 18.8257 25.8623C18.8257 25.8623 9.18288 25.7752 6.21587 25.4931C6.0753 25.4671 5.90489 25.4469 5.71191 25.424C4.77209 25.3124 3.29698 25.1374 2.12581 23.9245C1.01434 22.8111 0.652736 20.2827 0.652736 20.2827C0.652736 20.2827 0.28186 17.314 0.28186 14.3442V11.5602C0.28186 8.59149 0.652736 5.62167 0.652736 5.62167C0.652736 5.62167 1.01434 3.09331 2.12581 1.97991C3.39937 0.660937 4.80972 0.526322 5.60622 0.450298C5.69257 0.442055 5.77171 0.434501 5.84268 0.426202C11.0326 0.0546875 18.8175 0.0546875 18.8175 0.0546875H18.8338C18.8338 0.0546875 26.6187 0.0546875 31.8086 0.426202C31.8796 0.434514 31.9588 0.442078 32.0452 0.450335C32.8411 0.526365 34.252 0.661151 35.5243 1.97991ZM14.9956 7.4082L14.9967 17.7188L25.0162 12.5813L14.9956 7.4082Z" fill="white"/>
</svg>
