<svg width="109" height="37" viewBox="0 0 109 37" fill="none" xmlns="http://www.w3.org/2000/svg">
<g clip-path="url(#clip0)">
<path fill-rule="evenodd" clip-rule="evenodd" d="M76.3386 10.479C76.3386 5.47069 72.1113 1.41177 67.0997 1.41177C62.088 1.41177 57.8607 5.47069 57.8607 10.479C57.8607 15.4873 62.0921 19.5436 67.0997 19.5436C72.1072 19.5436 76.3386 15.4868 76.3386 10.479ZM56.7617 10.479C56.7617 4.9309 61.5398 0.431641 67.0986 0.431641C72.6574 0.431641 77.4314 4.93039 77.4314 10.479C77.4314 16.0276 72.6518 20.5238 67.0986 20.5238C61.5455 20.5238 56.7617 16.0271 56.7617 10.4795V10.479Z" fill="black"/>
<path fill-rule="evenodd" clip-rule="evenodd" d="M39.7702 12.9652L37.1967 18.5169L34.6251 12.9652L28.9134 0.975586H27.7714L37.1376 20.6351H37.2516L46.622 0.975586H45.4799L39.7702 12.9652Z" fill="black"/>
<path fill-rule="evenodd" clip-rule="evenodd" d="M107.935 0.429575L107.94 10.0407L107.994 17.6413L91.236 0H91.12V20.0788H92.1825V10.0407L92.1255 2.44417L108.888 20.085H109V0.429575H107.935Z" fill="black"/>
<path fill-rule="evenodd" clip-rule="evenodd" d="M4.16011 13.7599L14.7028 13.7701L12.0338 8.11439L9.42531 2.54426L6.85584 8.10003L4.16011 13.7599ZM1.14409 20.0835H0L9.37244 0.552734H9.48433L18.8547 20.0835H17.7127L15.1006 14.5985H3.75411L1.14409 20.0835Z" fill="black"/>
<path fill-rule="evenodd" clip-rule="evenodd" d="M12.7631 30.1074H13.2025V31.3741H13.8995V31.7534H13.2025V34.7851H12.7631V31.7534H12.1631V31.3741H12.7631V30.1074Z" fill="#FF007F"/>
<path fill-rule="evenodd" clip-rule="evenodd" d="M14.9281 30.0586H15.3675V31.9866C15.5236 31.7718 15.7238 31.5928 15.9547 31.4616C16.1674 31.3455 16.4062 31.2855 16.6486 31.2873C16.8894 31.2833 17.126 31.351 17.3282 31.4816C17.5232 31.6081 17.6757 31.79 17.766 32.004C17.8605 32.2224 17.9075 32.5641 17.9072 33.0292V34.7849H17.4678V33.1579C17.4678 32.7645 17.4521 32.5021 17.4206 32.3705C17.3662 32.145 17.2673 31.9753 17.1239 31.8615C16.9805 31.7477 16.7923 31.6906 16.5593 31.6903C16.2972 31.6895 16.0437 31.7836 15.8459 31.9553C15.6409 32.1225 15.4952 32.3511 15.4301 32.6073C15.388 32.7744 15.367 33.0839 15.367 33.5357V34.7865H14.9276L14.9281 30.0586Z" fill="#FF007F"/>
<path fill-rule="evenodd" clip-rule="evenodd" d="M22.094 33.6524L22.4646 33.8467C22.3598 34.0626 22.2172 34.2581 22.0437 34.4239C21.8874 34.5683 21.705 34.6815 21.5063 34.7576C21.2901 34.8369 21.0611 34.8757 20.8308 34.872C20.2734 34.872 19.8376 34.6896 19.5235 34.325C19.2187 33.985 19.0508 33.5444 19.0523 33.088C19.048 32.668 19.1888 32.2594 19.4511 31.9311C19.7882 31.5005 20.2397 31.2852 20.8057 31.2852C21.3874 31.2852 21.8524 31.5058 22.2008 31.947C22.4478 32.2583 22.5734 32.647 22.5775 33.1132H19.5045C19.5127 33.5096 19.6393 33.8342 19.8843 34.0871C20.0008 34.2103 20.1418 34.3078 20.2983 34.3732C20.4548 34.4386 20.6232 34.4706 20.7928 34.467C20.9661 34.4671 21.1379 34.4365 21.3005 34.3768C21.4539 34.3226 21.5962 34.241 21.7203 34.1358C21.8684 33.9943 21.9944 33.8313 22.094 33.6524ZM22.094 32.7338C22.0502 32.5296 21.9626 32.3372 21.8374 32.1699C21.7177 32.0241 21.5654 31.9082 21.3929 31.8316C21.211 31.7462 21.0123 31.7023 20.8113 31.7029C20.4925 31.6967 20.1834 31.8122 19.947 32.0259C19.7711 32.1828 19.638 32.4179 19.5476 32.7313L22.094 32.7338Z" fill="#FF007F"/>
<path fill-rule="evenodd" clip-rule="evenodd" d="M29.2311 32.0823L28.8831 32.2986C28.582 31.8987 28.1714 31.6988 27.6512 31.6988C27.2355 31.6988 26.8901 31.8324 26.6149 32.0997C26.4824 32.2246 26.3775 32.3757 26.3068 32.5434C26.2361 32.7111 26.2012 32.8917 26.2043 33.0737C26.2038 33.3201 26.2692 33.5622 26.3937 33.7749C26.516 33.9911 26.6965 34.1687 26.9147 34.2876C27.141 34.4088 27.3945 34.4706 27.6512 34.467C28.1532 34.467 28.5639 34.2674 28.8831 33.8682L29.2316 34.0974C29.0687 34.3446 28.8419 34.5431 28.5751 34.672C28.2818 34.812 27.9599 34.8822 27.6348 34.8771C27.0949 34.8771 26.6469 34.7062 26.2911 34.3644C26.1194 34.2049 25.9832 34.0111 25.8912 33.7956C25.7993 33.5802 25.7536 33.3478 25.7573 33.1137C25.7549 32.7891 25.8413 32.47 26.0072 32.1909C26.17 31.9108 26.4074 31.6812 26.693 31.5276C26.9925 31.3667 27.3281 31.2847 27.6682 31.2892C27.8904 31.2885 28.1113 31.3231 28.3226 31.3918C28.5147 31.4515 28.6956 31.5426 28.858 31.6614C29.0085 31.7762 29.1352 31.9192 29.2311 32.0823Z" fill="black"/>
<path fill-rule="evenodd" clip-rule="evenodd" d="M32.0618 31.2857C32.3083 31.2799 32.5531 31.328 32.7791 31.4265C33.0051 31.5251 33.2068 31.6717 33.3702 31.8562C33.6784 32.1977 33.8467 32.6425 33.8418 33.1022C33.8368 33.5619 33.659 34.003 33.3435 34.3378C33.0109 34.6946 32.5831 34.8728 32.0603 34.8724C31.5374 34.8721 31.1097 34.6939 30.7771 34.3378C30.4616 34.0037 30.2837 33.5632 30.2788 33.104C30.2738 32.6448 30.4422 32.2006 30.7504 31.8598C30.9136 31.6741 31.1156 31.5264 31.3422 31.4272C31.5688 31.328 31.8145 31.2797 32.0618 31.2857ZM32.0618 31.7152C31.8853 31.7134 31.7103 31.7484 31.5481 31.8181C31.3859 31.8877 31.2401 31.9905 31.12 32.1197C30.9919 32.248 30.8911 32.4007 30.8234 32.5687C30.7556 32.7368 30.7225 32.9167 30.7258 33.0978C30.7245 33.3395 30.7864 33.5773 30.9054 33.7877C31.0184 33.9938 31.1863 34.1646 31.3905 34.2814C31.5956 34.3957 31.8266 34.4557 32.0616 34.4557C32.2965 34.4557 32.5275 34.3957 32.7327 34.2814C32.937 34.1649 33.105 33.994 33.2177 33.7877C33.3369 33.5774 33.3988 33.3395 33.3974 33.0978C33.4007 32.9166 33.3674 32.7366 33.2995 32.5685C33.2316 32.4005 33.1305 32.2478 33.0021 32.1197C32.8819 31.9906 32.7361 31.8879 32.5739 31.8183C32.4117 31.7487 32.2368 31.7136 32.0603 31.7152H32.0618Z" fill="black"/>
<path fill-rule="evenodd" clip-rule="evenodd" d="M35.0214 31.3737H35.4608V31.9632C35.5846 31.7748 35.7447 31.6129 35.9319 31.487C36.1425 31.3564 36.3852 31.2868 36.6331 31.286C36.7952 31.2852 36.9557 31.3184 37.1043 31.3834C37.2435 31.4407 37.3682 31.5283 37.4692 31.6397C37.5793 31.7767 37.6624 31.9332 37.714 32.1011C37.8415 31.8542 38.0302 31.6442 38.2622 31.4911C38.473 31.3546 38.7188 31.2821 38.97 31.2824C39.1915 31.2781 39.4092 31.3404 39.5947 31.4613C39.777 31.5822 39.9177 31.7562 39.9976 31.9596C40.0849 32.1729 40.1287 32.4927 40.129 32.9192V34.7816H39.6799V32.9192C39.6799 32.5532 39.6539 32.3019 39.6019 32.1652C39.5503 32.0293 39.4566 31.9135 39.3345 31.8345C39.1997 31.7485 39.0422 31.7047 38.8823 31.7089C38.6726 31.7078 38.4681 31.7737 38.2987 31.8971C38.1225 32.022 37.9879 32.1968 37.9122 32.3989C37.8307 32.6074 37.79 32.9563 37.79 33.4457V34.7816H37.3522V33.0351C37.3522 32.625 37.3265 32.3454 37.2752 32.1964C37.2264 32.0525 37.1322 31.9282 37.0067 31.8422C36.8726 31.7515 36.7134 31.7049 36.5515 31.7089C36.3471 31.7094 36.1479 31.7735 35.9817 31.8925C35.8051 32.0147 35.6686 32.1865 35.5896 32.3861C35.5044 32.5932 35.462 32.9098 35.4623 33.336V34.7816H35.0229L35.0214 31.3737Z" fill="black"/>
<path fill-rule="evenodd" clip-rule="evenodd" d="M41.4307 31.374H41.869V32.0014C42.0246 31.7789 42.2296 31.5954 42.468 31.4652C42.7014 31.3441 42.9611 31.2826 43.2241 31.2863C43.4566 31.2832 43.6872 31.3281 43.9015 31.4183C44.1158 31.5084 44.3091 31.6419 44.4693 31.8102C44.6365 31.9743 44.7685 32.1706 44.8574 32.3872C44.9464 32.6038 44.9903 32.8361 44.9867 33.0702C44.9914 33.3067 44.9484 33.5418 44.8602 33.7613C44.772 33.9809 44.6405 34.1805 44.4734 34.3482C44.2214 34.608 43.8939 34.7821 43.5374 34.846C43.1808 34.9098 42.8132 34.8601 42.4865 34.7039C42.2475 34.5814 42.0375 34.4092 41.8706 34.199V36.0331H41.4312L41.4307 31.374ZM43.1887 31.7097C43.0096 31.7062 42.8317 31.7399 42.6664 31.8087C42.501 31.8776 42.3519 31.98 42.2283 32.1096C42.1 32.2398 41.9993 32.3945 41.9322 32.5645C41.8652 32.7345 41.8332 32.9163 41.8382 33.0989C41.8345 33.343 41.8944 33.5838 42.0122 33.7976C42.1288 34.0049 42.3013 34.1752 42.5101 34.2892C42.7185 34.4081 42.9543 34.4707 43.1943 34.4707C43.4293 34.4714 43.66 34.4081 43.8616 34.2877C44.0703 34.1647 44.2418 33.9875 44.3579 33.7751C44.4784 33.5654 44.5418 33.3279 44.5418 33.0861C44.5418 32.8443 44.4784 32.6068 44.3579 32.3971C44.2431 32.188 44.0737 32.0138 43.8678 31.893C43.6618 31.7723 43.427 31.7095 43.1882 31.7113L43.1887 31.7097Z" fill="black"/>
<path fill-rule="evenodd" clip-rule="evenodd" d="M49.5826 31.374V34.7854H49.1494V34.199C48.9814 34.4099 48.7699 34.5821 48.5293 34.7039C48.202 34.8602 47.8338 34.9099 47.4767 34.8461C47.1196 34.7823 46.7916 34.6081 46.5388 34.3482C46.3718 34.1805 46.2403 33.9809 46.1521 33.7613C46.0639 33.5418 46.0209 33.3067 46.0256 33.0702C46.022 32.8361 46.0661 32.6036 46.1552 32.387C46.2443 32.1704 46.3766 31.9742 46.544 31.8102C46.7043 31.6418 46.8978 31.5083 47.1123 31.4182C47.3267 31.328 47.5575 31.2831 47.7902 31.2863C48.0548 31.2825 48.3162 31.344 48.5514 31.4652C48.7901 31.5946 48.9949 31.7783 49.1494 32.0014V31.374H49.5826ZM47.8261 31.7097C47.5871 31.7078 47.352 31.7706 47.1458 31.8913C46.9395 32.0121 46.7699 32.1863 46.6548 32.3956C46.5343 32.6053 46.4709 32.8428 46.4709 33.0846C46.4709 33.3263 46.5343 33.5639 46.6548 33.7735C46.7713 33.986 46.9432 34.1632 47.1522 34.2861C47.354 34.4063 47.5846 34.4695 47.8195 34.4692C48.0593 34.4692 48.295 34.4067 48.5031 34.2877C48.7115 34.1734 48.8836 34.0031 49 33.7961C49.1178 33.5822 49.1778 33.3414 49.174 33.0974C49.179 32.9147 49.147 32.733 49.08 32.563C49.013 32.393 48.9122 32.2382 48.7839 32.108C48.6604 31.9793 48.5115 31.8774 48.3467 31.8089C48.1819 31.7404 48.0046 31.7066 47.8261 31.7097Z" fill="black"/>
<path fill-rule="evenodd" clip-rule="evenodd" d="M50.9412 31.373H51.3806V31.9845C51.5347 31.7694 51.7339 31.5903 51.9642 31.4596C52.1779 31.3433 52.4178 31.2833 52.6612 31.2853C52.902 31.2813 53.1386 31.3489 53.3408 31.4796C53.5358 31.6074 53.6879 31.7908 53.7771 32.0061C53.8708 32.2255 53.9179 32.5672 53.9182 33.0313V34.787H53.4789V33.16C53.4789 32.7666 53.4617 32.5042 53.4275 32.3726C53.3765 32.147 53.2788 31.9774 53.1344 31.8636C52.99 31.7498 52.8018 31.6927 52.5698 31.6924C52.3077 31.6908 52.054 31.7845 51.8559 31.9558C51.6509 32.1232 51.505 32.3517 51.4396 32.6079C51.3982 32.7771 51.3773 33.0865 51.377 33.5362V34.787H50.9376L50.9412 31.373Z" fill="black"/>
<path fill-rule="evenodd" clip-rule="evenodd" d="M54.8642 31.374H55.3287L56.5025 34.0007L57.6425 31.374H58.1101L56.0729 36.0327H55.6084L56.2659 34.5266L54.8642 31.374Z" fill="black"/>
<path fill-rule="evenodd" clip-rule="evenodd" d="M62.6054 30.0582V30.4877C62.4753 30.4264 62.3344 30.3916 62.1907 30.3852C62.1161 30.3821 62.0422 30.3999 61.9772 30.4365C61.9284 30.4618 61.8906 30.5041 61.8709 30.5554C61.8558 30.6005 61.8485 30.7201 61.8488 30.9142V31.3756H62.5618V31.7554H61.8483V34.7871H61.4084V31.7554H60.9598V31.3756H61.4084V30.843C61.4084 30.5986 61.431 30.424 61.4762 30.3191C61.5229 30.2123 61.6033 30.1237 61.7051 30.0669C61.8244 30.0002 61.9596 29.9671 62.0962 29.971C62.2692 29.9763 62.4405 30.0057 62.6054 30.0582Z" fill="black"/>
<path fill-rule="evenodd" clip-rule="evenodd" d="M65.2021 31.2857C65.4486 31.2799 65.6934 31.328 65.9194 31.4265C66.1454 31.5251 66.3471 31.6717 66.5104 31.8562C66.8186 32.1977 66.987 32.6425 66.9821 33.1022C66.9771 33.5619 66.7992 34.003 66.4837 34.3378C66.1511 34.6946 65.7234 34.8728 65.2005 34.8724C64.6777 34.8721 64.25 34.6939 63.9174 34.3378C63.6019 34.0037 63.424 33.5632 63.419 33.104C63.4141 32.6448 63.5825 32.2006 63.8907 31.8598C64.0539 31.6741 64.2559 31.5264 64.4825 31.4272C64.7091 31.328 64.9547 31.2797 65.2021 31.2857ZM65.2021 31.7152C65.0255 31.7134 64.8506 31.7484 64.6884 31.8181C64.5262 31.8877 64.3803 31.9905 64.2602 32.1197C64.1323 32.248 64.0315 32.4008 63.9639 32.5688C63.8963 32.7368 63.8632 32.9167 63.8665 33.0978C63.8651 33.3394 63.9268 33.5773 64.0457 33.7877C64.1588 33.9939 64.3268 34.1648 64.5312 34.2814C64.7363 34.3957 64.9672 34.4557 65.2021 34.4557C65.4369 34.4557 65.6679 34.3957 65.8729 34.2814C66.0773 34.1648 66.2454 33.9939 66.3585 33.7877C66.4773 33.5773 66.5391 33.3394 66.5376 33.0978C66.541 32.9166 66.5077 32.7366 66.4398 32.5685C66.3719 32.4005 66.2707 32.2478 66.1424 32.1197C66.0222 31.9905 65.8764 31.8879 65.7142 31.8182C65.552 31.7486 65.3771 31.7135 65.2005 31.7152H65.2021Z" fill="black"/>
<path fill-rule="evenodd" clip-rule="evenodd" d="M67.9984 31.3728H68.447V31.8716C68.5581 31.6985 68.7021 31.5489 68.871 31.4313C69.0071 31.3379 69.1679 31.2871 69.3329 31.2852C69.4706 31.2899 69.6048 31.3299 69.7225 31.4015L69.4931 31.7711C69.4204 31.7363 69.3416 31.7161 69.2611 31.7117C69.1021 31.7166 68.9508 31.781 68.8371 31.8921C68.7002 32.0121 68.5966 32.1985 68.5261 32.4514C68.4717 32.6462 68.4445 33.0392 68.4445 33.6304V34.7843H67.9958L67.9984 31.3728Z" fill="black"/>
<path fill-rule="evenodd" clip-rule="evenodd" d="M72.1559 31.374H72.6081L73.6547 33.851L74.7449 31.374H74.8245L75.9213 33.851L76.9884 31.374H77.4458L75.9619 34.785H75.8803L74.788 32.3429L73.6968 34.785H73.6147L72.1559 31.374Z" fill="black"/>
<path fill-rule="evenodd" clip-rule="evenodd" d="M79.9465 31.2857C80.193 31.2799 80.4378 31.328 80.6638 31.4266C80.8897 31.5251 81.0915 31.6717 81.2548 31.8562C81.563 32.1977 81.7314 32.6425 81.7264 33.1022C81.7215 33.5619 81.5436 34.003 81.2281 34.3378C80.8958 34.6946 80.4681 34.8728 79.9449 34.8725C79.4217 34.8721 78.994 34.6939 78.6617 34.3378C78.3461 34.0038 78.168 33.5634 78.163 33.1041C78.1579 32.6449 78.3263 32.2006 78.6345 31.8598C78.7978 31.674 78.9999 31.5263 79.2266 31.4271C79.4533 31.3279 79.699 31.2796 79.9465 31.2857ZM79.9465 31.7152C79.7699 31.7135 79.595 31.7485 79.4328 31.8182C79.2706 31.8878 79.1248 31.9905 79.0046 32.1197C78.8768 32.2481 78.7761 32.4009 78.7084 32.5689C78.6408 32.7369 78.6076 32.9167 78.6109 33.0978C78.6096 33.3395 78.6715 33.5773 78.7906 33.7878C78.9033 33.994 79.0712 34.1649 79.2756 34.2814C79.4808 34.3957 79.7118 34.4557 79.9467 34.4557C80.1816 34.4557 80.4127 34.3957 80.6178 34.2814C80.8222 34.1649 80.9901 33.994 81.1029 33.7878C81.2219 33.5773 81.2838 33.3395 81.2825 33.0978C81.2858 32.9166 81.2524 32.7366 81.1845 32.5686C81.1166 32.4006 81.0155 32.2479 80.8873 32.1197C80.767 31.9906 80.621 31.8879 80.4588 31.8183C80.2965 31.7487 80.1215 31.7136 79.9449 31.7152H79.9465Z" fill="black"/>
<path fill-rule="evenodd" clip-rule="evenodd" d="M82.906 31.3737H83.3454V31.9632C83.4693 31.7747 83.6297 31.6128 83.8171 31.487C84.0276 31.3564 84.2704 31.2868 84.5182 31.286C84.6804 31.2853 84.8409 31.3185 84.9894 31.3834C85.1285 31.4406 85.2531 31.5281 85.3538 31.6397C85.4641 31.7766 85.5474 31.9332 85.5992 32.1011C85.7266 31.8542 85.9153 31.6442 86.1473 31.4911C86.3581 31.3546 86.604 31.2821 86.8551 31.2824C87.0766 31.2782 87.2942 31.3405 87.4798 31.4613C87.662 31.5822 87.8025 31.7562 87.8822 31.9596C87.9702 32.1728 88.014 32.4927 88.0136 32.9192V34.7816H87.565V32.9192C87.565 32.5532 87.5388 32.3019 87.4865 32.1652C87.4352 32.0291 87.3414 31.9132 87.2191 31.8345C87.0843 31.7484 86.9268 31.7046 86.7669 31.7089C86.5572 31.7079 86.3528 31.7738 86.1833 31.8971C86.0074 32.0223 85.8729 32.197 85.7968 32.3989C85.7157 32.6074 85.6751 32.9563 85.6751 33.4457V34.7816H85.2353V33.0351C85.2353 32.625 85.2098 32.3454 85.1588 32.1964C85.1099 32.0525 85.0157 31.9283 84.8903 31.8422C84.7562 31.7515 84.597 31.7049 84.4351 31.7089C84.2306 31.7092 84.0314 31.7734 83.8653 31.8924C83.6884 32.0145 83.5517 32.1863 83.4727 32.3861C83.3881 32.5932 83.3457 32.9098 83.3454 33.336V34.7816H82.906V31.3737Z" fill="black"/>
<path fill-rule="evenodd" clip-rule="evenodd" d="M92.1851 33.6524L92.5556 33.8467C92.4507 34.0626 92.308 34.2581 92.1342 34.4239C91.978 34.5683 91.7956 34.6815 91.5968 34.7576C91.3807 34.837 91.1517 34.8757 90.9214 34.872C90.3643 34.872 89.9287 34.6896 89.6146 34.325C89.3096 33.9851 89.1415 33.5444 89.1429 33.088C89.1385 32.6679 89.2795 32.2592 89.5422 31.9311C89.8792 31.5005 90.3306 31.2852 90.8962 31.2852C91.4779 31.2852 91.943 31.5058 92.2913 31.9469C92.5387 32.2583 92.6645 32.647 92.6686 33.1132H89.5951C89.6033 33.5096 89.73 33.8342 89.9754 34.0871C90.0918 34.2103 90.2329 34.3078 90.3893 34.3732C90.5458 34.4386 90.7143 34.4706 90.8839 34.467C91.0571 34.467 91.229 34.4365 91.3915 34.3768C91.5448 34.3226 91.687 34.241 91.8109 34.1358C91.9593 33.9945 92.0854 33.8315 92.1851 33.6524ZM92.1851 32.7338C92.141 32.5296 92.0535 32.3373 91.9284 32.1699C91.8085 32.0241 91.6561 31.9082 91.4834 31.8316C91.3015 31.7462 91.1029 31.7023 90.9019 31.7029C90.5831 31.6968 90.274 31.8123 90.0375 32.0259C89.8616 32.1828 89.7287 32.4179 89.6387 32.7313L92.1851 32.7338Z" fill="black"/>
<path fill-rule="evenodd" clip-rule="evenodd" d="M93.8573 31.373H94.2967V31.9845C94.4511 31.7695 94.6504 31.5904 94.8808 31.4596C95.0945 31.3432 95.3344 31.2832 95.5778 31.2853C95.8186 31.2813 96.0552 31.349 96.2574 31.4796C96.4527 31.6064 96.6052 31.7889 96.6952 32.0035C96.7896 32.2229 96.8367 32.5647 96.8364 33.0287V34.7845H96.397V33.1574C96.397 32.7641 96.3807 32.5016 96.3482 32.37C96.2972 32.1445 96.1995 31.9748 96.0551 31.861C95.9109 31.7467 95.722 31.6898 95.4905 31.6898C95.2283 31.6884 94.9744 31.782 94.7761 31.9533C94.5711 32.1205 94.4253 32.3491 94.3603 32.6053C94.3182 32.7745 94.2972 33.0839 94.2972 33.5337V34.7845H93.8578L93.8573 31.373Z" fill="black"/>
</g>
<defs>
<clipPath id="clip0">
<rect width="109" height="36.0331" fill="white"/>
</clipPath>
</defs>
</svg>
