<svg width="71" height="32" viewBox="0 0 71 32" fill="none" xmlns="http://www.w3.org/2000/svg">
<path fill-rule="evenodd" clip-rule="evenodd" d="M34.3363 15.5536C31.2569 15.5536 29.9418 14.0731 29.9418 10.6078V5.94186C29.9418 2.47657 31.2439 0.996094 34.3363 0.996094C37.6696 0.996094 38.4964 2.71409 38.7113 5.29435V5.45379L38.5452 5.47331L36.5596 5.69783L36.3838 5.71735L36.3675 5.5449C36.2145 3.79761 35.9736 3.02972 34.3233 3.02972C32.738 3.02972 32.279 3.69674 32.279 5.99718V10.5525C32.279 12.8301 32.738 13.5004 34.3233 13.5004C35.9509 13.5004 36.1917 12.7716 36.348 10.9852L36.3643 10.8128L36.5401 10.8323L38.5452 11.0568L38.7145 11.0764V11.2423C38.4346 13.9039 37.6045 15.5536 34.3395 15.5536H34.3363ZM20.0851 15.4401H20.3748L20.2349 15.1896L15.3944 6.71345L18.7603 1.36747L18.923 1.11042H18.6138H16.55H16.4523L16.4035 1.19176L12.8066 7.00304V1.27961V1.11042H12.634H10.6288H10.4563V1.27961V15.2709V15.4401H10.6288H12.634H12.8066V15.2709V10.8425L13.9296 9.03666L17.6437 15.3555L17.6926 15.4401H17.7902H20.0851ZM5.05266 15.4401H0.996704V1.12339H4.80201C7.99208 1.12339 9.12163 2.08 9.12163 4.78065V4.83597C9.12163 6.35224 8.69194 7.24052 7.70888 7.71883C9.0728 8.29801 9.36902 9.50516 9.36902 11.1223V11.4216C9.36902 14.3956 8.23947 15.4498 5.05266 15.4498V15.4401ZM3.3502 13.4976H5.16659C6.70303 13.4976 7.05785 13.0876 7.05785 11.298V10.9987C7.05785 9.21557 6.68676 8.77957 5.16659 8.77957H3.3502V13.4976ZM3.3502 6.93141H4.90292C6.35473 6.93141 6.77464 6.53119 6.77464 5.13857V4.85874C6.77464 3.43683 6.40681 3.08868 4.90292 3.08868H3.3502V6.93141ZM39.9743 26.7179C40.1696 29.0444 40.6351 30.9967 44.3101 30.9967L44.3329 30.9869C47.2789 30.9869 48.5354 29.7147 48.5354 26.731C48.5354 25.2407 48.3498 23.7928 47.0771 23.1876C48.1838 22.5498 48.4214 21.5151 48.4214 20.09C48.4214 17.526 47.1975 16.4327 44.3329 16.4327C40.7978 16.4327 40.3161 18.4208 40.1012 20.6333L40.0849 20.7993L40.2542 20.8155L42.2073 21.0205L42.3798 21.0401L42.3961 20.8709C42.5882 19.1008 42.816 18.4305 44.3101 18.4305C45.8043 18.4305 46.068 19.026 46.068 20.2754C46.068 21.6843 45.8173 22.309 44.3264 22.309H43.0862V24.2613H44.3134C45.788 24.2613 46.1689 24.7429 46.1689 26.6106C46.1689 28.4034 45.7131 28.9793 44.2971 28.9793C42.6468 28.9793 42.4417 28.3286 42.2692 26.4641V26.2949L42.0934 26.3145L40.124 26.539L39.958 26.5552L39.9743 26.7179ZM14.9289 30.9968C11.7942 30.9968 10.4563 29.5163 10.4563 26.0511V21.3949C10.4563 17.9296 11.7942 16.4491 14.9289 16.4491C18.0637 16.4491 19.3983 17.9296 19.3983 21.3949V26.0576C19.3983 29.4773 18.0181 31.0033 14.9289 31.0033V30.9968ZM14.9289 18.4827C13.3013 18.4827 12.8261 19.1335 12.8261 21.4502V26.0055C12.8261 28.2636 13.3176 28.9534 14.9289 28.9534C16.5402 28.9534 17.0285 28.2636 17.0285 26.0055V21.4502C17.0285 19.1725 16.5402 18.4827 14.9289 18.4827ZM9.19656 16.5589H7.18811H3.17774H1.17255H1.00002V16.7281V30.7194V30.8886H1.17255H3.17774H3.35026V30.7194V18.6315H7.01885V30.7194V30.8886H7.18811H9.19656H9.36583V30.7194V16.7281V16.5589H9.19656ZM26.5043 30.889H28.8546L28.8611 30.8792V16.5625H20.492V27.6775C20.5191 27.9987 20.4916 28.3221 20.4106 28.6341C20.3618 28.7382 20.2804 28.8456 19.8768 28.8456H19.3397V30.889H19.9484C22.3475 30.889 22.839 29.6428 22.839 27.7719V18.6124H26.5043V30.889ZM34.4144 30.9968C31.2797 30.9968 29.9418 29.5164 29.9418 26.0511V21.3949C29.9418 17.9296 31.2797 16.4491 34.4144 16.4491C37.5492 16.4491 38.8838 17.9101 38.8838 21.486V24.2842H32.3278V26.0023C32.3278 28.3027 32.7966 28.9697 34.4144 28.9697C36.1071 28.9697 36.3447 28.2018 36.4782 26.4545V26.2821L36.6572 26.3016L38.6787 26.5261L38.8447 26.5424V26.7051C38.6396 29.3699 37.8291 30.9968 34.4144 30.9968ZM32.3278 22.319H36.5596V21.4795C36.5596 19.1367 36.0973 18.4957 34.4177 18.4957C32.7901 18.4957 32.3311 19.1465 32.3311 21.4437L32.3278 22.319ZM57.7931 16.5589H55.7879H55.6154V16.7281V22.1587H51.9501V16.7281V16.5589H51.7776H49.7724H49.5998V16.7281V30.7194V30.8886H49.7724H51.7776H51.9501V30.7194V24.2281H55.6154V30.7194V30.8886H55.7879H57.7931H57.9656V30.7194V16.7281V16.5589H57.7931ZM59.0561 26.0543C59.0561 29.5196 60.394 30.9968 63.5255 30.9968V31.0001C66.6179 31.0001 67.9981 29.4773 67.9981 26.0576V21.3949C67.9981 17.9296 66.657 16.4491 63.5255 16.4491C60.394 16.4491 59.0561 17.9296 59.0561 21.3949V26.0543ZM61.4226 21.4502C61.4226 19.1335 61.8979 18.4827 63.5255 18.4827C65.1368 18.4827 65.6283 19.1725 65.6283 21.4502V26.0055C65.6283 28.2636 65.1368 28.9534 63.5255 28.9534C61.9142 28.9534 61.4226 28.2636 61.4226 26.0055V21.4502ZM47.995 15.4401H48.1643V15.2709V1.27961V1.11042H47.995H45.9866H45.8173V1.27961V6.7102H42.1487V1.27961V1.11042H41.9762H39.971H39.7985V1.27961V15.2709V15.4401H39.971H41.9762H42.1487V15.2709V8.77961H45.8173V15.2709V15.4401H45.9866H47.995ZM53.7307 15.5536C50.5959 15.5536 49.258 14.0731 49.258 10.6078V5.94186C49.258 2.47657 50.5959 0.996094 53.7307 0.996094C56.8654 0.996094 58.2 2.47657 58.2 5.94186V10.6046C58.2 14.0243 56.8198 15.5503 53.7307 15.5503V15.5536ZM53.7307 3.02972C52.1031 3.02972 51.6278 3.69674 51.6278 5.99718V10.5525C51.6278 12.8106 52.1193 13.5004 53.7307 13.5004C55.342 13.5004 55.8335 12.8106 55.8335 10.5525V5.99718C55.8335 3.71952 55.342 3.02972 53.7307 3.02972ZM20.0851 11.242C20.3651 13.9037 21.2049 15.5533 24.4601 15.5533H24.4633C27.5558 15.5533 28.8578 14.0728 28.8578 10.6076V1.11298H26.4881V5.06309C26.4881 7.32122 25.9933 8.01103 24.3852 8.01103C22.7772 8.01103 22.2856 7.32122 22.2856 5.06309V1.11298H19.9159V5.1184C19.9159 8.5837 21.2537 10.0642 24.3852 10.0642C25.1436 10.0761 25.8864 9.84839 26.5076 9.41341V10.5522C26.5076 12.8494 26.0486 13.5002 24.4633 13.5002C22.8195 13.5002 22.5949 12.7713 22.4354 10.985V10.8125L22.2596 10.8321L20.2544 11.0566L20.0851 11.0761V11.242Z" fill="#D71921"/>
<path d="M61.9206 13.7061C60.5892 13.7061 59.4695 12.2744 59.4695 10.602C59.4512 10.2002 59.5409 9.80098 59.7292 9.44565C59.9176 9.09031 60.1977 8.79187 60.5404 8.58135C61.0905 9.62256 61.3152 10.0358 61.8685 10.9273C62.3059 11.683 62.8034 12.4022 63.3562 13.0781C63.1769 13.2808 62.9556 13.4419 62.7077 13.5504C62.4598 13.6588 62.1912 13.712 61.9206 13.7061ZM61.9564 6.12473C61.4356 5.12907 61.2631 4.54013 61.2631 3.88937C61.2631 3.12798 61.6797 2.56508 62.2396 2.56508C62.8907 2.56508 63.2585 3.10846 63.2585 3.99675C63.2585 4.88503 62.8614 5.49675 61.9564 6.12473ZM62.1452 1C60.4883 1 59.2156 2.47722 59.2156 4.39046C59.2446 5.34026 59.4754 6.27304 59.8926 7.1269C59.3472 7.38813 58.841 7.72437 58.3887 8.12582C58.3171 8.18764 58.252 8.25271 58.1869 8.32104V10.5987C58.232 11.6265 58.0393 12.6509 57.6238 13.5922C57.9848 14.2058 58.5045 14.711 59.1282 15.0545C59.752 15.3981 60.4568 15.5673 61.1687 15.5445C61.7749 15.5648 62.3792 15.4645 62.9464 15.2495C63.5136 15.0344 64.0324 14.7089 64.4727 14.2918C64.807 14.6652 65.2172 14.9631 65.6758 15.1656C66.1343 15.3681 66.6308 15.4707 67.1322 15.4664C68.3236 15.4664 69.1862 14.8156 69.6354 13.5792C69.9284 12.7755 70.0162 12.1215 70.0162 10.5792V10.2766H68.5482V10.8232C68.5482 12.538 68.2031 13.3417 67.4772 13.3417C66.9954 13.3417 66.543 13.0586 66.1491 12.5152C66.6971 11.7988 67.144 11.0105 67.4772 10.1725C68.2715 8.38937 68.4538 8.22017 69.4824 8.22017H70.0065V6.85358H64.8405V8.22017H65.2539C65.8594 8.22017 66.0482 8.36985 66.0482 8.82538C66.0482 9.41432 65.6673 10.436 65.1172 11.3243C64.588 10.6963 64.1193 10.0198 63.7175 9.30369C63.2162 8.4577 63.0664 8.17462 62.6791 7.43601C64.1992 6.50217 64.8568 5.43818 64.8568 3.96096C64.8568 2.24621 63.7338 1.00651 62.1452 1.00651" fill="#87CF11"/>
</svg>
