<svg width="22" height="22" viewBox="0 0 22 22" fill="none" xmlns="http://www.w3.org/2000/svg">
<g clip-path="url(#clip0)">
<path fill-rule="evenodd" clip-rule="evenodd" d="M20.625 11C20.625 8.44729 19.6109 5.99914 17.8059 4.1941C16.0009 2.38906 13.5527 1.375 11 1.375C8.44729 1.375 5.99914 2.38906 4.1941 4.1941C2.38906 5.99914 1.375 8.44729 1.375 11C1.375 13.5527 2.38906 16.0009 4.1941 17.8059C5.99913 19.6109 8.44729 20.625 11 20.625C13.5527 20.625 16.0009 19.6109 17.8059 17.8059C19.6109 16.0009 20.625 13.5527 20.625 11V11ZM-9.45698e-07 11C-6.90653e-07 8.08262 1.15892 5.28472 3.22182 3.22182C5.28473 1.15893 8.08262 6.90652e-07 11 9.45698e-07C13.9174 1.20074e-06 16.7153 1.15893 18.7782 3.22183C20.8411 5.28473 22 8.08262 22 11C22 13.9174 20.8411 16.7153 18.7782 18.7782C16.7153 20.8411 13.9174 22 11 22C8.08262 22 5.28472 20.8411 3.22182 18.7782C1.15892 16.7153 -1.20074e-06 13.9174 -9.45698e-07 11V11ZM6.1875 11.6875C6.00516 11.6875 5.83029 11.6151 5.70136 11.4861C5.57243 11.3572 5.5 11.1823 5.5 11C5.5 10.8177 5.57243 10.6428 5.70136 10.5139C5.83029 10.3849 6.00516 10.3125 6.1875 10.3125L14.1529 10.3125L11.2008 7.36175C11.1368 7.29783 11.0861 7.22194 11.0515 7.13843C11.0169 7.05491 10.9991 6.9654 10.9991 6.875C10.9991 6.7846 11.0169 6.69509 11.0515 6.61157C11.0861 6.52806 11.1368 6.45217 11.2008 6.38825C11.2647 6.32433 11.3406 6.27362 11.4241 6.23903C11.5076 6.20444 11.5971 6.18663 11.6875 6.18663C11.7779 6.18663 11.8674 6.20444 11.9509 6.23903C12.0344 6.27362 12.1103 6.32433 12.1743 6.38825L16.2993 10.5133C16.3633 10.5771 16.4141 10.653 16.4487 10.7365C16.4834 10.82 16.5012 10.9096 16.5012 11C16.5012 11.0904 16.4834 11.18 16.4487 11.2635C16.4141 11.347 16.3633 11.4229 16.2993 11.4868L12.1742 15.6117C12.0452 15.7408 11.8701 15.8134 11.6875 15.8134C11.5049 15.8134 11.3298 15.7408 11.2007 15.6117C11.0717 15.4827 10.9991 15.3076 10.9991 15.125C10.9991 14.9424 11.0717 14.7673 11.2007 14.6382L14.1529 11.6875L6.1875 11.6875Z" fill="black"/>
</g>
<defs>
<clipPath id="clip0">
<rect width="22" height="22" fill="white" transform="translate(22 22) rotate(-180)"/>
</clipPath>
</defs>
</svg>
